<?xml version="1.0" encoding="UTF-8"?>
<svg width="380px" height="36px" viewBox="0 0 380 36" version="1.1" xmlns="http://www.w3.org/2000/svg" xmlns:xlink="http://www.w3.org/1999/xlink">
    <title>iap2-logo</title>
    <g id="Login" stroke="none" stroke-width="1" fill="none" fill-rule="evenodd">
        <g id="1440" transform="translate(-98.000000, -164.000000)" fill="#FFFFFF" fill-rule="nonzero">
            <g id="iap2-logo" transform="translate(98.000000, 164.000000)">
                <path d="M52.1945541,10.1328125 L50.1039531,10.1328125 L50.1039531,26 L52.1945541,26 L52.1945541,10.1328125 Z M56.1878368,14.328125 L56.1878368,26 L58.2314579,26 L58.2314579,17.328125 C59.370718,16.5195312 60.6509174,16.0625 61.6022583,16.0625 C62.8942027,16.0625 63.4109805,16.7421875 63.4109805,17.9609375 L63.4109805,26 L65.4546017,26 L65.4546017,17.3515625 C65.4546017,15.2304688 64.2566168,14.09375 62.2482305,14.09375 C60.7918568,14.09375 59.3237382,14.7851562 58.0435387,15.7460938 L57.8791094,14.328125 L56.1878368,14.328125 Z M67.6274172,15.9921875 L69.4478844,15.9921875 L69.4596293,23.1523438 C69.4596293,25.3203125 70.8337884,26.234375 72.6777454,26.234375 C73.4881469,26.234375 74.3337832,26.09375 74.7918362,25.9648438 L74.6274069,24.2539062 L74.4208838,24.2901875 C74.0833809,24.3471875 73.5233817,24.4296875 73.0535838,24.4296875 C72.1727126,24.4296875 71.4915055,24.1484375 71.4915055,22.8476562 L71.4915055,15.9921875 L74.380763,15.9921875 L74.380763,14.328125 L71.4562707,14.328125 L71.4445257,11.0703125 L69.6358036,11.0703125 L69.4831192,14.328125 L67.6274172,14.328125 L67.6274172,15.9921875 Z M76.3774044,21.5 C76.3774044,24.546875 78.55022,26.234375 81.3690078,26.234375 C83.2834345,26.234375 84.7398082,25.8007812 85.3035657,25.625 L85.1156465,23.8554688 L84.6021869,23.99056 C83.9224572,24.1586559 82.8467987,24.3710938 81.4277325,24.3710938 C79.4780709,24.3710938 78.4210255,23.3164062 78.4210255,21.4765625 L78.4210255,20.8789062 L85.5384647,20.8789062 L85.5384647,18.828125 C85.5384647,15.78125 83.4243739,14.09375 80.9579345,14.09375 C78.4914952,14.09375 76.3774044,15.78125 76.3774044,18.828125 L76.3774044,21.5 Z M78.4210255,18.8515625 C78.4210255,16.8945312 79.2666619,15.8984375 80.9579345,15.8984375 C82.6492072,15.8984375 83.4948436,16.8945312 83.4948436,18.8515625 L83.4948436,19.3554688 L78.4210255,19.3554688 L78.4210255,18.8515625 Z M88.8270505,9.078125 L88.8270505,26 L90.8706716,26 L90.8706716,9.078125 L88.8270505,9.078125 Z M94.8639543,9.078125 L94.8639543,26 L96.9075755,26 L96.9075755,9.078125 L94.8639543,9.078125 Z M100.900858,14.328125 L100.900858,26 L102.944479,26 L102.944479,14.328125 L100.900858,14.328125 Z M100.701194,10.8710938 C100.701194,11.6445312 101.147502,12.1015625 101.922669,12.1015625 C102.697835,12.1015625 103.155888,11.6445312 103.155888,10.8710938 C103.155888,10.0976562 102.697835,9.65234375 101.922669,9.65234375 C101.147502,9.65234375 100.701194,10.0976562 100.701194,10.8710938 Z M113.503189,11.9023438 C113.256545,12.78125 112.833727,13.8125 112.446143,14.4570312 C111.858896,14.2226562 111.189434,14.09375 110.472992,14.09375 C107.853868,14.09375 105.962931,15.7929688 105.962931,17.9257812 L105.962931,18.6640625 C105.962931,20.0117188 106.702863,21.171875 107.889103,21.8515625 C107.160916,22.3789062 106.479709,23.1054688 106.479709,24.0195312 C106.479709,24.7578125 107.019977,25.3671875 107.654204,25.6484375 C106.655883,26.1992188 105.704542,27.1367188 105.704542,28.4257812 C105.704542,30.3828125 107.243131,31.484375 109.73306,31.484375 L111.471312,31.484375 C113.972987,31.484375 115.934393,30.125 115.934393,27.9921875 C115.934393,25.578125 114.137416,24.3242188 111.94111,24.3242188 L109.204542,24.3242188 C108.61729,24.3242188 108.300176,24.03125 108.300176,23.5742188 C108.300176,23.1757812 108.687759,22.7070312 109.169302,22.3554688 C109.568631,22.4492188 110.003194,22.4960938 110.461247,22.4960938 C113.092115,22.4960938 114.959562,20.6914062 114.959562,18.6640625 L114.959562,17.9257812 C114.959562,16.8359375 114.466274,15.8632812 113.644128,15.1601562 C114.31359,14.515625 115.006542,13.5078125 115.42936,12.453125 L113.503189,11.9023438 Z M107.889103,18.0429688 C107.889103,16.8359375 108.734739,15.7109375 110.461247,15.7109375 C112.199499,15.7109375 113.033391,16.8359375 113.033391,18.0429688 L113.033391,18.546875 C113.033391,19.765625 112.176009,20.8320312 110.461247,20.8320312 C108.734739,20.8320312 107.889103,19.765625 107.889103,18.546875 L107.889103,18.0429688 Z M111.553527,26 C112.833727,26 113.902517,26.46875 113.902517,27.96875 C113.902517,29.5625 112.704532,29.8085938 111.224669,29.8085938 L109.909234,29.8085938 C108.61729,29.8085938 107.536754,29.328125 107.536754,28.15625 C107.536754,27.1132812 108.382391,26.3632812 109.134068,26 L111.553527,26 Z M117.296807,21.5 C117.296807,24.546875 119.469623,26.234375 122.288411,26.234375 C124.202837,26.234375 125.659211,25.8007812 126.222969,25.625 L126.035049,23.8554688 L125.671398,23.9526726 C125.005314,24.1247162 123.875361,24.3710938 122.347135,24.3710938 C120.397474,24.3710938 119.340428,23.3164062 119.340428,21.4765625 L119.340428,20.8789062 L126.457868,20.8789062 L126.457868,18.828125 C126.457868,15.78125 124.343777,14.09375 121.877337,14.09375 C119.410898,14.09375 117.296807,15.78125 117.296807,18.828125 L117.296807,21.5 Z M119.340428,18.8515625 C119.340428,16.8945312 120.186065,15.8984375 121.877337,15.8984375 C123.56861,15.8984375 124.414246,16.8945312 124.414246,18.8515625 L124.414246,19.3554688 L119.340428,19.3554688 L119.340428,18.8515625 Z M129.746453,14.328125 L129.746453,26 L131.790074,26 L131.790074,17.328125 C132.929335,16.5195312 134.209534,16.0625 135.160875,16.0625 C136.452819,16.0625 136.969597,16.7421875 136.969597,17.9609375 L136.969597,26 L139.013218,26 L139.013218,17.3515625 C139.013218,15.2304688 137.815233,14.09375 135.806847,14.09375 C134.350473,14.09375 132.882355,14.7851562 131.602155,15.7460938 L131.437726,14.328125 L129.746453,14.328125 Z M141.186034,15.9921875 L143.006501,15.9921875 L143.018246,23.1523438 C143.018246,25.3203125 144.392405,26.234375 146.236362,26.234375 C147.046763,26.234375 147.8924,26.09375 148.350453,25.9648438 L148.186024,24.2539062 L147.9795,24.2901875 C147.641997,24.3471875 147.081998,24.4296875 146.6122,24.4296875 C145.731329,24.4296875 145.050122,24.1484375 145.050122,22.8476562 L145.050122,15.9921875 L147.93938,15.9921875 L147.93938,14.328125 L145.014887,14.328125 L145.003142,11.0703125 L143.19442,11.0703125 L143.041736,14.328125 L141.186034,14.328125 L141.186034,15.9921875 Z M166.895728,26 L161.892379,10.1328125 L158.850437,10.1328125 L153.847089,26 L156.066884,26 L157.264869,22.0742188 L163.477947,22.0742188 L164.675932,26 L166.895728,26 Z M160.365536,11.796875 L162.93768,20.2578125 L157.816882,20.2578125 L160.365536,11.796875 Z M178.217859,26 L178.217859,14.328125 L176.174237,14.328125 L176.174237,23.0117188 C175.058467,23.8203125 173.790013,24.265625 172.862162,24.265625 C171.617197,24.265625 171.112164,23.5859375 171.112164,22.3671875 L171.112164,14.328125 L169.068543,14.328125 L169.068543,22.9765625 C169.068543,25.0976562 170.243038,26.234375 172.216189,26.234375 C173.649073,26.234375 175.093702,25.5546875 176.362157,24.5820312 L176.526586,26 L178.217859,26 Z M180.508124,15.9921875 L182.328591,15.9921875 L182.340336,23.1523438 C182.340336,25.3203125 183.714495,26.234375 185.558452,26.234375 C186.368853,26.234375 187.21449,26.09375 187.672543,25.9648438 L187.508113,24.2539062 L187.30159,24.2901875 C186.964087,24.3471875 186.404088,24.4296875 185.93429,24.4296875 C185.053419,24.4296875 184.372212,24.1484375 184.372212,22.8476562 L184.372212,15.9921875 L187.261469,15.9921875 L187.261469,14.328125 L184.336977,14.328125 L184.325232,11.0703125 L182.51651,11.0703125 L182.363826,14.328125 L180.508124,14.328125 L180.508124,15.9921875 Z M189.37556,21.6171875 C189.37556,24.6875 191.70106,26.234375 194.331929,26.234375 C196.962797,26.234375 199.288297,24.6875 199.288297,21.6171875 L199.288297,18.7109375 C199.288297,15.640625 196.962797,14.09375 194.331929,14.09375 C191.70106,14.09375 189.37556,15.640625 189.37556,18.7109375 L189.37556,21.6171875 Z M191.419181,18.8515625 C191.419181,17.0117188 192.476227,15.8984375 194.331929,15.8984375 C196.187631,15.8984375 197.244676,17.0117188 197.244676,18.8515625 L197.244676,21.4765625 C197.244676,23.3164062 196.187631,24.4296875 194.331929,24.4296875 C192.476227,24.4296875 191.419181,23.3164062 191.419181,21.4765625 L191.419181,18.8515625 Z M202.694333,14.328125 L202.694333,26 L204.737954,26 L204.737954,17.328125 C205.877214,16.5195312 207.157413,16.0625 208.108754,16.0625 C209.400699,16.0625 209.917476,16.7421875 209.917476,17.9609375 L209.917476,26 L211.961097,26 L211.961097,17.3515625 C211.961097,15.2304688 210.763113,14.09375 208.754726,14.09375 C207.298353,14.09375 205.830234,14.7851562 204.550035,15.7460938 L204.385605,14.328125 L202.694333,14.328125 Z M215.249683,21.6171875 C215.249683,24.6875 217.575183,26.234375 220.206052,26.234375 C222.83692,26.234375 225.16242,24.6875 225.16242,21.6171875 L225.16242,18.7109375 C225.16242,15.640625 222.83692,14.09375 220.206052,14.09375 C217.575183,14.09375 215.249683,15.640625 215.249683,18.7109375 L215.249683,21.6171875 Z M217.293304,18.8515625 C217.293304,17.0117188 218.35035,15.8984375 220.206052,15.8984375 C222.061754,15.8984375 223.118799,17.0117188 223.118799,18.8515625 L223.118799,21.4765625 C223.118799,23.3164062 222.061754,24.4296875 220.206052,24.4296875 C218.35035,24.4296875 217.293304,23.3164062 217.293304,21.4765625 L217.293304,18.8515625 Z M228.568456,14.328125 L228.568456,26 L230.612077,26 L230.612077,17.3164062 C231.716102,16.5078125 232.949322,16.0625 233.865428,16.0625 C235.075157,16.0625 235.5567,16.7421875 235.5567,17.9609375 L235.5567,26 L237.600321,26 L237.600321,17.3164062 C238.704347,16.5078125 239.937566,16.0625 240.853672,16.0625 C242.063402,16.0625 242.544945,16.7421875 242.544945,17.9609375 L242.544945,26 L244.588566,26 L244.588566,17.3515625 C244.588566,15.2304688 243.437561,14.09375 241.499645,14.09375 C240.043271,14.09375 238.598642,14.8203125 237.330188,15.8164062 C236.88388,14.6914062 235.897304,14.09375 234.5114,14.09375 C233.090261,14.09375 231.669122,14.7851562 230.424158,15.7460938 L230.259728,14.328125 L228.568456,14.328125 Z M247.877152,21.6171875 C247.877152,24.6875 250.202652,26.234375 252.83352,26.234375 C255.464389,26.234375 257.789889,24.6875 257.789889,21.6171875 L257.789889,18.7109375 C257.789889,15.640625 255.464389,14.09375 252.83352,14.09375 C250.202652,14.09375 247.877152,15.640625 247.877152,18.7109375 L247.877152,21.6171875 Z M249.920773,18.8515625 C249.920773,17.0117188 250.977819,15.8984375 252.83352,15.8984375 C254.689222,15.8984375 255.746268,17.0117188 255.746268,18.8515625 L255.746268,21.4765625 C255.746268,23.3164062 254.689222,24.4296875 252.83352,24.4296875 C250.977819,24.4296875 249.920773,23.3164062 249.920773,21.4765625 L249.920773,18.8515625 Z M270.110341,26 L270.110341,14.328125 L268.06672,14.328125 L268.06672,23.0117188 C266.950949,23.8203125 265.682495,24.265625 264.754644,24.265625 C263.509679,24.265625 263.004646,23.5859375 263.004646,22.3671875 L263.004646,14.328125 L260.961025,14.328125 L260.961025,22.9765625 C260.961025,25.0976562 262.13552,26.234375 264.108672,26.234375 C265.541555,26.234375 266.986184,25.5546875 268.254639,24.5820312 L268.419068,26 L270.110341,26 Z M280.892204,22.8828125 C280.892204,20.84375 280.112979,20.0092448 277.833105,19.4054306 L277.15314,19.2315053 C275.430899,18.772055 275.007985,18.3967014 275.007985,17.3984375 C275.007985,16.2382812 275.912346,15.8398438 277.356974,15.8398438 C278.472745,15.8398438 279.588515,16.0625 280.199252,16.2265625 L280.457641,14.515625 L280.184761,14.4423125 C279.541587,14.2785938 278.559657,14.09375 277.216035,14.09375 C274.737851,14.09375 273.140538,15.4765625 273.140538,17.328125 C273.140538,19.6015625 274.103623,20.3046875 276.217714,20.84375 C278.449255,21.3710938 279.024757,21.8164062 279.024757,23.046875 C279.024757,24.21875 278.190866,24.4882812 276.570063,24.4882812 C275.289863,24.4882812 273.997919,24.1601562 273.422416,23.9492188 L273.105303,25.6484375 C273.774765,25.90625 275.148924,26.234375 276.816707,26.234375 C279.424085,26.234375 280.892204,25.1679688 280.892204,22.8828125 Z M294.52809,20.4921875 C297.088489,20.4921875 299.601908,18.9335938 299.601908,15.828125 L299.601908,14.7617188 C299.601908,11.6796875 297.088489,10.1328125 294.52809,10.1328125 L289.466017,10.1328125 L289.466017,26 L291.556618,26 L291.556618,20.4921875 L294.52809,20.4921875 Z M294.351916,11.9140625 C296.242853,11.9140625 297.534797,12.9101562 297.534797,14.9257812 L297.534797,15.6640625 C297.534797,17.703125 296.242853,18.7109375 294.351916,18.7109375 L291.556618,18.7109375 L291.556618,11.9140625 L294.351916,11.9140625 Z M302.538145,9.078125 L302.538145,26 L304.581766,26 L304.581766,9.078125 L302.538145,9.078125 Z M307.459279,23.0234375 C307.459279,25.1914062 308.962633,26.234375 310.947529,26.234375 C312.251218,26.234375 313.460948,25.6484375 314.259605,25.0742188 C314.588463,25.7539062 315.24618,26.234375 316.197521,26.234375 C316.773024,26.234375 317.289801,26.1054688 317.583425,25.9765625 L317.5247,24.3828125 C317.325036,24.4296875 317.043158,24.4765625 316.773024,24.4765625 C316.267991,24.4765625 315.974367,24.125 315.974367,23.515625 L315.974367,18.6054688 C315.974367,15.6171875 314.893832,14.09375 311.746185,14.09375 C310.289812,14.09375 308.821693,14.4804688 308.116996,14.7148438 L308.34015,16.4726562 L308.699897,16.373967 C309.427844,16.1835706 310.505738,15.9570312 311.499542,15.9570312 C313.413968,15.9570312 313.930746,16.8710938 313.930746,18.3242188 L313.930746,19.578125 L311.440817,19.578125 C309.221021,19.578125 307.459279,20.75 307.459279,23.0234375 Z M311.158938,24.59375 C310.254577,24.59375 309.43243,24.0546875 309.43243,22.9179688 C309.43243,21.6875 310.219342,21.0664062 311.570011,21.0664062 L313.930746,21.0664062 L313.930746,23.6796875 C313.06162,24.2539062 312.204238,24.59375 311.158938,24.59375 Z M318.405572,15.9921875 L320.226039,15.9921875 L320.237784,23.1523438 C320.237784,25.3203125 321.611943,26.234375 323.4559,26.234375 C324.266301,26.234375 325.111938,26.09375 325.569991,25.9648438 L325.405561,24.2539062 L325.199038,24.2901875 C324.861535,24.3471875 324.301536,24.4296875 323.831738,24.4296875 C322.950867,24.4296875 322.26966,24.1484375 322.26966,22.8476562 L322.26966,15.9921875 L325.158917,15.9921875 L325.158917,14.328125 L322.234425,14.328125 L322.22268,11.0703125 L320.413958,11.0703125 L320.261274,14.328125 L318.405572,14.328125 L318.405572,15.9921875 Z M326.333412,15.9921875 L328.153879,15.9921875 L328.153879,26 L330.197501,26 L330.197501,15.9921875 L333.321657,15.9921875 L333.321657,14.328125 L330.197501,14.328125 L330.197501,12.8515625 C330.197501,11.1640625 330.890453,10.6484375 332.053203,10.6484375 C332.746155,10.6484375 333.239442,10.7539062 333.568301,10.8125 L333.791455,9.078125 L333.585592,9.03228082 C333.185938,8.94954427 332.517128,8.84375 331.783069,8.84375 C329.621998,8.84375 328.153879,10.3554688 328.153879,12.6875 L328.153879,14.328125 L326.333412,14.328125 L326.333412,15.9921875 Z M334.613601,21.6171875 C334.613601,24.6875 336.939101,26.234375 339.56997,26.234375 C342.200839,26.234375 344.526339,24.6875 344.526339,21.6171875 L344.526339,18.7109375 C344.526339,15.640625 342.200839,14.09375 339.56997,14.09375 C336.939101,14.09375 334.613601,15.640625 334.613601,18.7109375 L334.613601,21.6171875 Z M336.657223,18.8515625 C336.657223,17.0117188 337.714268,15.8984375 339.56997,15.8984375 C341.425672,15.8984375 342.482717,17.0117188 342.482717,18.8515625 L342.482717,21.4765625 C342.482717,23.3164062 341.425672,24.4296875 339.56997,24.4296875 C337.714268,24.4296875 336.657223,23.3164062 336.657223,21.4765625 L336.657223,18.8515625 Z M347.932374,14.328125 L347.932374,26 L349.975995,26 L349.975995,17.9726562 C350.962571,17.0234375 352.501159,16.2382812 353.816593,16.1328125 L353.781358,14.09375 C352.371965,14.1289062 350.715927,15.1953125 349.776331,16.1679688 L349.588412,14.328125 L347.932374,14.328125 Z M356.283033,14.328125 L356.283033,26 L358.326654,26 L358.326654,17.3164062 C359.430679,16.5078125 360.663899,16.0625 361.580005,16.0625 C362.789735,16.0625 363.271277,16.7421875 363.271277,17.9609375 L363.271277,26 L365.314899,26 L365.314899,17.3164062 C366.418924,16.5078125 367.652143,16.0625 368.568249,16.0625 C369.777979,16.0625 370.259522,16.7421875 370.259522,17.9609375 L370.259522,26 L372.303143,26 L372.303143,17.3515625 C372.303143,15.2304688 371.152138,14.09375 369.214222,14.09375 C367.757848,14.09375 366.313219,14.8203125 365.044765,15.8164062 C364.598457,14.6914062 363.611881,14.09375 362.225977,14.09375 C360.804838,14.09375 359.383699,14.7851562 358.138735,15.7460938 L357.974305,14.328125 L356.283033,14.328125 Z M380,13.90625 L376.101656,13.90625 L377.451224,12.3731512 C378.995217,10.6036062 379.835571,9.48245555 379.835571,8.11621094 C379.835571,6.36621094 378.424219,5.60742188 376.971761,5.60742188 C376.163317,5.60742188 375.368575,5.79199219 374.676602,6.10644531 L374.895841,7.125 C375.402831,6.92675781 376.156465,6.72851562 376.923802,6.72851562 C377.92408,6.72851562 378.588649,7.15234375 378.588649,8.08886719 C378.588649,9.46972656 377.204702,10.9941406 374.55328,14.0361328 L374.55328,15 L380,15 L380,13.90625 Z M30.4828474,0.721813788 C31.1303289,0.721813788 31.7702369,0.982285194 32.2200313,1.43389886 C32.6694093,1.88509444 32.9283571,2.5264157 32.9283571,3.17505527 C32.9283571,3.82369483 32.6694093,4.46501609 32.2200313,4.91621167 C31.7702369,5.36782534 31.1303289,5.62829675 30.4828474,5.62829675 C30.1193332,5.62829675 29.7838535,5.56185238 29.4796556,5.4287209 L29.3625828,5.37042414 L26.1922802,8.13661165 C26.043462,8.28603174 25.880798,8.37245444 25.6836776,8.39711145 L25.5611057,8.40450362 L17.81904,8.40450362 C15.2774668,8.40450362 12.8706389,9.40787173 11.0952521,11.1904392 C9.27109115,13.0219782 8.26434788,15.4367033 8.26434788,18 C8.26434788,20.547006 9.25959573,22.9677806 11.0399516,24.8095608 C12.8637001,26.6406856 15.2675553,27.6510205 17.81904,27.6510205 L25.5611057,27.6510205 C25.8151786,27.6510205 26.0136983,27.7396084 26.1903926,27.917032 L29.627042,31.3149473 L29.7850838,31.2617725 C29.9593269,31.2069787 30.1170326,31.1712319 30.2591895,31.1571847 L30.3962001,31.1504688 C31.0884463,31.0872828 31.7473652,31.3310243 32.2200313,31.8056021 C32.6694093,32.2567977 32.9283571,32.898119 32.9283571,33.5467585 C32.9283571,34.1953981 32.6694093,34.8367193 32.2200313,35.2879149 C31.7702369,35.7395286 31.1303289,36 30.4828474,36 C29.1310163,36 28.0373378,34.901898 28.0373378,33.5467585 C28.0373378,33.1494671 28.116393,32.7943806 28.2867281,32.4577969 L28.3312905,32.3763097 L25.2531435,29.3364187 L17.929641,29.3371035 C15.0445711,29.3371035 12.2923364,28.2402223 10.1431778,26.2575437 L9.88820365,26.015384 C7.74180137,23.8603003 6.58075582,21.0057281 6.58075582,17.9444759 C6.58075582,14.9333476 7.76189436,12.0661335 9.88820365,9.87356777 C12.0350213,7.71806705 14.8792585,6.55184823 17.929641,6.55184823 L25.3199957,6.55145957 L28.1798901,4.03145957 L28.1711865,4.00991217 C28.0972815,3.81039837 28.0559613,3.59189437 28.0423895,3.35559641 L28.0373378,3.17505527 C28.0373378,2.5264157 28.2962856,1.88509444 28.7456636,1.43389886 C29.195458,0.982285194 29.835366,0.721813788 30.4828474,0.721813788 Z M20.5840635,0 C21.0074591,0 21.3740994,0.315534202 21.4759334,0.72790513 L22.0848406,4.17391504 C22.168146,4.675769 21.8431527,5.13803831 21.3708595,5.232879 C20.9072985,5.32596618 20.3941952,4.98251384 20.2998967,4.50820927 L19.8501648,1.79705722 L16.0582731,1.79705722 L15.5538585,4.53488871 C15.4775147,4.8414991 15.2621323,5.08330351 14.9709263,5.19455977 L14.8582932,5.23003302 C13.4463412,5.5702721 12.2267678,6.07060791 11.0981778,6.79161363 C10.8163172,6.98028076 10.3883405,6.98028076 10.1021411,6.78866131 L7.85119193,5.23128065 L5.15744463,7.9347139 L6.71399554,10.2035775 C6.8801471,10.4538129 6.89860838,10.8189736 6.77630752,11.0836739 L6.72386,11.1778067 C5.9877734,12.42853 5.46853853,13.6717134 5.1573703,14.9734266 C5.0714835,15.3183633 4.80962599,15.5812799 4.43269841,15.6742724 L1.794193,16.0734605 L1.794193,19.879455 L4.52027476,20.3877328 C4.82663183,20.4646319 5.06757127,20.6809128 5.17818852,20.9724838 L5.21343437,21.085227 C5.55242913,22.5034181 6.05094222,23.7283979 6.76929601,24.8619499 C6.95621651,25.1434646 6.95621651,25.5704318 6.766376,25.8562726 L5.21249932,28.1192371 L7.9052635,30.8236512 L10.1617803,29.2639105 C10.4123231,29.0962064 10.7783156,29.0775726 11.0502035,29.2051899 L11.147341,29.2598965 C12.2820683,29.9849162 13.5016417,30.485252 14.9167629,30.8262707 C15.2614146,30.9127821 15.5232722,31.1756987 15.6146857,31.5473149 L16.0641718,34.2578747 L19.8550804,34.2578747 L20.3571738,31.5364871 C20.4441273,31.0999609 20.8439818,30.7877307 21.3001246,30.8084015 L21.331449,30.8004491 C21.5231764,30.7550525 21.7083074,30.8450647 21.8406317,31.0023732 L21.8939743,31.0737127 C22.0166316,31.2584429 22.0720373,31.502596 22.0275635,31.7258645 L21.4192584,35.168361 C21.3323655,35.6045828 20.9718993,35.8889517 20.528763,35.8889517 L15.2752185,35.8889517 C14.8518228,35.8889517 14.4851825,35.5734175 14.3834151,35.1614219 L13.8668998,32.2636512 L13.6206492,32.1949848 C12.7028128,31.921125 11.8105426,31.5539298 10.9128169,31.0892968 L10.6540655,30.9501907 L8.29344076,32.5992652 C7.98087123,32.8346405 7.59146714,32.8157662 7.23050899,32.5866922 L7.1231802,32.511708 L3.3627483,28.7360667 C3.06861681,28.4407456 3.01377372,27.917629 3.26847657,27.5770162 L4.91461413,25.2 L4.8035697,25.0075133 C4.30112594,24.0971969 3.909006,23.1292199 3.65031498,22.1569988 L3.60214966,21.9629428 L0.718605662,21.4459272 C0.322399918,21.3663655 0.0526792772,21.0604908 0.00691358827,20.6727456 L0,20.5541103 L0,15.2793173 C0,14.8363749 0.282779344,14.4750182 0.724567922,14.3863577 L3.55594305,13.8693188 L3.63519785,13.5973939 C3.92928014,12.6393355 4.31583404,11.7145823 4.78447621,10.8604644 L4.91461413,10.6322616 L3.27562605,8.26634716 C3.04235313,7.95405861 3.06098706,7.56565351 3.28832801,7.2047149 L3.3627483,7.09736089 L7.1231802,3.32171954 C7.41831283,3.02539321 7.9424692,3.02539321 8.28348634,3.28246566 L10.6471836,4.93307902 L10.8157714,4.83620511 C11.6725703,4.36057829 12.590323,3.99014611 13.6290777,3.68948325 L13.867883,3.62354223 L14.3847231,0.720590708 C14.4643749,0.320720746 14.7739043,0.0484493555 15.1662671,0.00584766518 L15.2752185,0 L20.5840635,0 Z M33.6349742,6.052131 C34.2824556,6.052131 34.9223636,6.3126024 35.372158,6.76421607 C35.821536,7.21541165 36.0804838,7.85673291 36.0804838,8.50537247 C36.0804838,9.15401204 35.821536,9.7953333 35.372158,10.2465289 C34.9223636,10.6981425 34.2824556,10.958614 33.6349742,10.958614 C32.9874927,10.958614 32.3475848,10.6981425 31.8977903,10.2465289 C31.6688284,10.0166409 31.5044327,9.78277986 31.383484,9.50731788 L31.3418481,9.40297568 L31.0685409,9.40297568 L28.4042989,12.0788254 C28.2554807,12.2282455 28.0928168,12.3146682 27.8956964,12.3393252 L27.7731245,12.3467174 L18.2614438,12.3467174 C16.7384325,12.3467174 15.3363931,12.9287514 14.2473788,14.0221702 C13.1924424,15.0813735 12.5777845,16.5541035 12.5777845,18.0555241 L12.5777845,18.3331448 C12.5777845,21.4558736 15.1143006,23.9864274 18.2061433,23.9864274 L27.717824,23.9864274 C27.9718969,23.9864274 28.1704166,24.0750153 28.3489984,24.2543194 L31.0134862,26.9291882 L31.2946583,26.9291882 L31.3696036,26.7607026 C31.462025,26.5701705 31.5719754,26.3965445 31.7035523,26.2389285 L31.8424899,26.0866159 C32.2473049,25.6801636 32.8061118,25.4285366 33.3629871,25.3833164 L33.5483268,25.3759585 C34.240573,25.3127725 34.8994919,25.556514 35.372158,26.0310918 C35.821536,26.4822874 36.0804838,27.1236086 36.0804838,27.7722482 C36.0804838,28.3982209 35.8399945,28.9777297 35.372158,29.5134046 C34.9223636,29.9650183 34.2824556,30.2254897 33.6349742,30.2254897 C32.9874927,30.2254897 32.3475848,29.9650183 31.8977903,29.5134046 C31.693054,29.3078402 31.536797,29.0965712 31.416725,28.8621494 L31.3536455,28.7262454 L30.7040493,28.726338 C30.4923219,28.726338 30.3191731,28.6648186 30.1639921,28.5405482 L30.0728749,28.458446 L27.4083871,25.7834661 L18.2614438,25.7835587 C14.2435558,25.7835587 10.9695544,22.5580748 10.842707,18.573133 L10.8388919,18.3331448 L10.8388919,18.0555241 C10.8388919,16.0375408 11.6206357,14.1291428 13.0403304,12.7608229 C14.4540383,11.3413971 16.319431,10.5495861 18.3167443,10.5495861 L27.4634418,10.5486978 L30.1281753,7.87469882 C30.2769935,7.72527873 30.4396575,7.63885603 30.6367779,7.61419902 L30.7593498,7.60680685 L31.3929703,7.60591846 L31.415666,7.5460605 C31.7562669,6.71734999 32.5573021,6.12522275 33.4638472,6.05842823 L33.6349742,6.052131 Z M33.6349742,15.4912344 C34.2824556,15.4912344 34.9223636,15.7517058 35.372158,16.2033195 C35.821536,16.654515 36.0804838,17.2958363 36.0804838,17.9444759 C36.0804838,18.5931154 35.821536,19.2344367 35.372158,19.6856323 C34.9088529,20.1508112 34.3186654,20.3977173 33.6349742,20.3977173 C32.9874927,20.3977173 32.3475848,20.1372459 31.8977903,19.6856323 C31.7514511,19.5387011 31.6227362,19.3683622 31.5141161,19.1826501 L31.4214807,19.0088366 L15.7176222,19.0096139 C15.2839574,19.0096139 14.8821532,18.6372859 14.8269652,18.2103874 L14.8205257,18.1110483 C14.8205257,17.644295 15.2505986,17.2124826 15.7176222,17.2124826 L31.2602491,17.2117793 L31.2671264,17.190036 C31.5609462,16.2373307 32.4342226,15.561597 33.4701207,15.4964054 L33.6349742,15.4912344 Z" id="fill"></path>
            </g>
        </g>
    </g>
</svg>