<?xml version="1.0" encoding="UTF-8"?>
<svg width="144px" height="24px" viewBox="0 0 144 24" version="1.1" xmlns="http://www.w3.org/2000/svg" xmlns:xlink="http://www.w3.org/1999/xlink">
    <title>syntax-logo</title>
    <defs>
        <linearGradient x1="16.2514407%" y1="15.6051282%" x2="67.6634073%" y2="115.603779%" id="linearGradient-1">
            <stop stop-color="#3E8BC7" offset="0%"></stop>
            <stop stop-color="#2474B7" offset="27.63%"></stop>
            <stop stop-color="#0A5EA8" offset="60.81%"></stop>
            <stop stop-color="#0056A2" offset="80.65%"></stop>
            <stop stop-color="#0056A2" offset="100%"></stop>
        </linearGradient>
        <linearGradient x1="31.2097584%" y1="46.8693527%" x2="62.4988911%" y2="77.7228093%" id="linearGradient-2">
            <stop stop-color="#AED14C" offset="0%"></stop>
            <stop stop-color="#A9CF4C" offset="3.54%"></stop>
            <stop stop-color="#7FB849" offset="39.27%"></stop>
            <stop stop-color="#65AA47" offset="67.25%"></stop>
            <stop stop-color="#5BA546" offset="83.87%"></stop>
            <stop stop-color="#5BA546" offset="100%"></stop>
        </linearGradient>
        <linearGradient x1="43.837943%" y1="115.604548%" x2="83.343567%" y2="15.5326964%" id="linearGradient-3">
            <stop stop-color="#5BA546" offset="0%"></stop>
            <stop stop-color="#3F8757" offset="17.4%"></stop>
            <stop stop-color="#236A67" offset="38.49%"></stop>
            <stop stop-color="#105673" offset="59.48%"></stop>
            <stop stop-color="#04497A" offset="80.11%"></stop>
            <stop stop-color="#00457C" offset="100%"></stop>
        </linearGradient>
    </defs>
    <g id="Login" stroke="none" stroke-width="1" fill="none" fill-rule="evenodd">
        <g id="1440" transform="translate(-1198.000000, -164.000000)" fill-rule="nonzero">
            <g id="syntax-logo" transform="translate(1198.000000, 164.000000)">
                <polygon id="Path" fill="url(#linearGradient-1)" points="15.3994873 3.36412161 8.15985523 16.2608494 15.4782084 9.09816663 23.8226512 24 27.0122154 24"></polygon>
                <polygon id="Path" fill="url(#linearGradient-2)" points="15.9342482 11.0949176 18.3420299 21.1733581 1.5907103 21.1733581 0 24 23.2553159 24"></polygon>
                <polygon id="Path" fill="url(#linearGradient-3)" points="16.4337204 20.6915758 6.72658724 17.7869575 15.1253205 2.88512416 13.5047504 0 1.86216257 20.6971455"></polygon>
                <path d="M58.0853567,18.9705268 L58.0853567,12.7324205 L51.0275976,5.0294732 L55.2459659,5.0294732 L59.9122304,10.3847761 L64.5920676,5.0294732 L68.3082491,5.0294732 L61.2749208,12.6544442 L61.2749208,18.9705268 L58.0853567,18.9705268 Z M71.1232092,18.9733117 L71.1232092,5.02668833 L73.2839692,5.02668833 L82.8499472,13.2448364 C83.1756899,13.5177535 83.4607148,13.7739615 83.7104509,14.0162451 C83.960187,14.2585287 84.1854924,14.506382 84.3917961,14.7625899 L84.2886442,13.1000232 L84.2718359,12.7451195 C84.2680573,12.6388489 84.2659291,12.544609 84.2649302,12.4623996 L84.2642135,5.02668833 L87.1063188,5.02668833 L87.1063188,18.9705268 L84.9455587,18.9705268 L74.9669733,10.3569274 L74.6296939,10.0436296 C74.5245061,9.94476677 74.4267833,9.85147366 74.337204,9.76375029 C74.1580455,9.58830355 73.9897451,9.40728707 73.8350173,9.22348573 C73.8784497,9.6551404 73.9083095,10.0617313 73.9327402,10.4432583 L73.9571709,10.9793456 C73.9625999,11.1457415 73.9653144,11.2996055 73.9653144,11.4402414 L73.9653144,18.9733117 L71.1232092,18.9733117 Z M106.129694,5.0294732 L106.129694,7.52193084 L99.86729,7.52193084 L99.86729,18.9705268 L96.7048711,18.9705268 L96.7048711,7.52193084 L90.4696124,7.52193084 L90.4696124,5.0294732 L106.129694,5.0294732 Z M116.515458,5.02668833 L124.306138,18.9705268 L120.758257,18.9705268 L119.124114,15.9238803 L110.508219,15.9238803 L108.925652,18.9705268 L105.77952,18.9705268 L113.467049,5.02668833 L116.515458,5.02668833 Z M114.881315,7.73079601 L111.860051,13.4035739 L117.813,13.4035739 L114.881315,7.73079601 Z M126.412607,18.9705268 L132.85417,11.807844 L126.295883,5.0294732 L130.487106,5.0294732 L134.833057,9.76375029 L138.961846,5.0294732 L142.599306,5.0294732 L136.673503,11.4402414 L144,18.9705268 L139.705625,18.9705268 L134.729905,13.5650963 L130.139647,18.9705268 L126.412607,18.9705268 Z M47.8434625,11.1617545 C47.3765646,10.6966814 46.4780576,10.4627524 45.150656,10.4627524 L36.6786307,10.4627524 L36.6786307,7.46901833 L45.5768361,7.46901833 L45.5768361,8.36296124 L48.3673654,8.36296124 L48.3673654,8.08725922 C48.3673654,6.94546298 48.1257729,6.14899049 47.6398733,5.7006266 C47.1539738,5.25226271 46.2744684,5.0294732 44.9986427,5.0294732 L37.2812547,5.0294732 C35.9619967,5.0294732 35.0689187,5.26340218 34.6074499,5.72847528 C34.1432665,6.19354839 33.912532,7.05964261 33.912532,8.32675795 L33.912532,9.86957531 C33.912532,11.1366906 34.1432665,12.0027849 34.6074499,12.467858 C35.0716332,12.9329311 35.9619967,13.1668601 37.2812547,13.1668601 L45.75328,13.1668601 L45.75328,16.3471803 L36.6379128,16.3471803 L36.6379128,15.3696913 L33.8473835,15.3696913 L33.8473835,15.6760269 C33.8473835,16.9431423 34.0808325,17.8092365 34.5477304,18.2743096 C35.0146283,18.7421676 35.9131353,18.9733117 37.2405369,18.9733117 L45.1479415,18.9733117 C46.4753431,18.9733117 47.3738501,18.7393827 47.840748,18.2743096 C48.3076459,17.8092365 48.5411413,16.9431423 48.5411413,15.6760269 L48.5411413,13.762822 C48.5438094,12.4957067 48.3103604,11.6296124 47.8434625,11.1617545 Z" id="Shape" fill="#FFFFFF"></path>
            </g>
        </g>
    </g>
</svg>